<svg width="400" height="150" viewBox="0 0 400 150" fill="none" xmlns="http://www.w3.org/2000/svg">
<path d="M97.3353 52.072C106.911 50.56 111.447 46.744 111.447 40.264C111.447 30.832 102.735 27.16 93.3033 27.16H70.6953V27.88C75.5913 27.88 75.9513 28.6 75.9513 33.856V72.304C75.9513 77.56 75.5913 78.28 70.6953 78.28V79H96.1833C105.615 79 114.111 74.032 114.111 65.104C114.111 57.4 108.279 53.224 97.3353 52.072ZM91.3593 27.88C96.3993 27.88 101.007 30.544 101.007 40.48C101.007 49.336 96.3993 52 91.3593 52H86.0312V27.88H91.3593ZM94.3833 78.28H92.6553C87.1113 78.28 86.0312 75.904 86.0312 68.704V52.72H93.5193C98.5593 52.72 103.455 55.744 103.455 64.96C103.455 74.752 98.9193 78.28 94.3833 78.28ZM140.022 75.616C132.534 75.616 128.07 69.136 128.07 59.416C128.07 58.048 128.142 56.824 128.214 55.6H152.262C151.182 46.888 145.134 42.28 136.854 42.28C125.91 42.28 119.07 49.912 119.07 61C119.07 72.088 125.694 79.72 136.854 79.72C145.782 79.72 150.894 73.24 152.262 66.544L151.614 66.4C150.462 71.656 146.502 75.616 140.022 75.616ZM136.638 43C140.31 43 142.686 45.736 143.19 54.88H128.286C129.078 47.392 131.958 43 136.638 43ZM178.917 42.28C174.885 42.28 172.077 46.384 169.917 51.28L169.197 42.28H168.477L156.741 47.32V48.04C160.917 49.48 161.277 49.84 161.277 55.096V72.304C161.277 77.92 160.917 78.28 156.741 78.28V79H175.173V78.28C170.277 78.28 169.917 77.92 169.917 72.304V52C171.357 50.128 172.293 49.192 173.805 48.112C175.389 49.84 176.973 51.208 179.349 51.208C181.797 51.208 183.597 49.264 183.597 46.816C183.597 43.792 181.437 42.28 178.917 42.28ZM220.568 72.304V52.36C220.568 46.528 217.544 42.28 210.704 42.28C205.376 42.28 201.056 46.456 198.464 49.84L197.744 42.28H197.024L185.288 47.32V48.04C189.464 49.48 189.824 49.84 189.824 55.096V72.304C189.824 77.92 189.464 78.28 185.288 78.28V79H203V78.28C198.824 78.28 198.464 77.92 198.464 72.304V50.56C200.264 49.408 202.64 48.04 205.808 48.04C209.768 48.04 211.928 50.2 211.928 54.52V72.304C211.928 77.92 211.496 78.28 207.32 78.28V79H225.104V78.28C220.928 78.28 220.568 77.92 220.568 72.304ZM237.106 79.72C241.498 79.72 245.098 77.272 248.194 73.168C248.554 77.56 251.362 79.72 255.034 79.72C258.85 79.72 262.018 77.416 263.818 72.376L263.17 72.16C262.45 74.104 261.442 76.264 259.282 76.264C257.77 76.264 256.834 75.256 256.834 73.384V49.984C256.834 44.512 253.81 42.28 248.338 42.28C244.738 42.28 240.706 43.648 235.954 46.312C230.41 49.552 228.898 51.712 228.898 53.944C228.898 55.96 230.194 57.256 232.21 57.256C235.738 57.256 237.106 54.088 236.89 46.672C238.258 45.808 240.49 44.44 243.586 44.44C246.754 44.44 248.194 46.168 248.194 49.624V57.76C236.098 63.304 229.114 65.896 229.114 71.872C229.114 77.056 232.498 79.72 237.106 79.72ZM242.794 75.616C239.914 75.616 237.754 73.6 237.754 69.424C237.754 64.456 239.986 61.864 248.194 58.48V72.448C246.682 74.104 245.098 75.616 242.794 75.616ZM287.339 42.28C283.307 42.28 280.499 46.384 278.339 51.28L277.619 42.28H276.899L265.163 47.32V48.04C269.339 49.48 269.699 49.84 269.699 55.096V72.304C269.699 77.92 269.339 78.28 265.163 78.28V79H283.595V78.28C278.699 78.28 278.339 77.92 278.339 72.304V52C279.779 50.128 280.715 49.192 282.227 48.112C283.811 49.84 285.395 51.208 287.771 51.208C290.219 51.208 292.019 49.264 292.019 46.816C292.019 43.792 289.859 42.28 287.339 42.28ZM326.512 25L313.984 28.6V29.32C318.232 31.264 318.592 31.624 318.592 36.88V44.728C315.856 42.856 312.688 42.28 309.952 42.28C300.16 42.28 292.672 49.192 292.672 61.216C292.672 72.664 299.08 79.72 307.432 79.72C313.12 79.72 316.864 75.544 318.592 72.16L319.312 79.72H320.032L331.768 77.344V76.624C327.592 76.624 327.232 76.264 327.232 70.216V25H326.512ZM310.528 74.896C305.344 74.896 301.672 71.08 301.672 60.424C301.672 48.256 304.768 43 310.096 43C314.272 43 318.592 45.808 318.592 57.616V71.44C317.008 73.024 314.416 74.896 310.528 74.896Z" fill="black"/>
<path d="M72.138 116C74.514 115.472 76.098 114.272 76.098 112.16C76.098 109.016 73.266 107.72 70.122 107.72H63.378V107.96C65.178 107.96 65.298 108.2 65.298 109.88V122.84C65.298 124.52 65.178 124.76 63.378 124.76V125H71.082C74.226 125 77.058 123.344 77.058 120.32C77.058 117.776 74.994 116.408 72.138 116ZM70.122 107.96C71.802 107.96 73.338 108.848 73.338 112.16C73.338 115.112 71.802 116 70.122 116H67.938V107.96H70.122ZM71.082 124.76H70.338C68.298 124.76 67.938 124.04 67.938 121.64V116.24H71.082C72.762 116.24 74.298 117.248 74.298 120.32C74.298 123.512 72.762 124.76 71.082 124.76ZM89.6702 122.24V113H85.5902V113.24C87.3902 113.24 87.5102 113.36 87.5102 115.16V122.552C86.8382 123.032 85.9262 123.56 84.5102 123.56C83.1902 123.56 82.2302 122.912 82.2302 121.16V113H78.3902V113.24C79.9502 113.24 80.0702 113.36 80.0702 115.16V121.88C80.0702 123.824 80.9822 125.24 83.3102 125.24C85.2062 125.24 86.6462 123.896 87.5102 122.792L87.7502 125.24H87.9902L91.3502 124.52V124.28C89.7902 124.28 89.6702 124.16 89.6702 122.24ZM95.2886 109.88C96.1526 109.88 96.8486 109.304 96.8486 108.44C96.8486 107.576 96.1526 107 95.2886 107C94.4246 107 93.7286 107.576 93.7286 108.44C93.7286 109.304 94.4246 109.88 95.2886 109.88ZM96.3686 122.84V112.76H96.1286L92.5286 114.44V114.68C94.0886 115.16 94.2086 115.28 94.2086 116.96V122.84C94.2086 124.64 94.0886 124.76 92.5286 124.76V125H98.0486V124.76C96.4886 124.76 96.3686 124.64 96.3686 122.84ZM103.072 122.84V107H102.832L99.2317 108.2V108.44C100.792 109.16 100.912 109.28 100.912 110.96V122.84C100.912 124.64 100.792 124.76 99.2317 124.76V125H104.752V124.76C103.192 124.76 103.072 124.64 103.072 122.84ZM113.951 123.656C113.423 124.136 112.775 124.52 111.935 124.52C110.375 124.52 109.535 123.992 109.535 121.52V113.48H113.615V113H109.535V110.12H109.295L105.695 113.24V113.48H107.375V121.88C107.375 123.824 108.287 125.24 110.495 125.24C112.295 125.24 113.423 124.448 114.095 123.8L113.951 123.656ZM127.638 123.656C127.11 124.136 126.462 124.52 125.622 124.52C124.062 124.52 123.222 123.992 123.222 121.52V113.48H127.302V113H123.222V110.12H122.982L119.382 113.24V113.48H121.062V121.88C121.062 123.824 121.974 125.24 124.182 125.24C125.982 125.24 127.11 124.448 127.782 123.8L127.638 123.656ZM133.899 125.24C137.499 125.24 139.779 122.48 139.779 119C139.779 115.52 137.499 112.76 133.899 112.76C130.299 112.76 128.019 115.52 128.019 119C128.019 122.48 130.299 125.24 133.899 125.24ZM133.899 125C131.499 125 130.299 122.72 130.299 119C130.299 115.28 131.499 113 133.899 113C136.299 113 137.499 115.28 137.499 119C137.499 122.72 136.299 125 133.899 125ZM164.271 122.84V116.12C164.271 114.176 163.359 112.76 161.151 112.76C159.495 112.76 158.007 114.128 157.119 115.232C156.855 113.768 155.919 112.76 154.071 112.76C152.295 112.76 150.975 114.224 150.111 115.208L149.871 112.76H149.631L146.271 114.44V114.68C147.831 115.16 147.951 115.28 147.951 116.96V122.84C147.951 124.64 147.831 124.76 146.271 124.76V125H151.791V124.76C150.231 124.76 150.111 124.64 150.111 122.84V115.448C150.783 114.968 151.455 114.44 152.751 114.44C154.071 114.44 155.031 115.088 155.031 116.84V122.84C155.031 124.64 154.911 124.76 153.351 124.76V125H158.871V124.76C157.311 124.76 157.191 124.64 157.191 122.84V116.12C157.191 115.904 157.191 115.712 157.167 115.496C157.815 114.944 158.655 114.44 159.831 114.44C161.151 114.44 162.111 115.088 162.111 116.84V122.84C162.111 124.64 161.991 124.76 160.431 124.76V125H165.951V124.76C164.391 124.76 164.271 124.64 164.271 122.84ZM169.89 109.88C170.754 109.88 171.45 109.304 171.45 108.44C171.45 107.576 170.754 107 169.89 107C169.026 107 168.33 107.576 168.33 108.44C168.33 109.304 169.026 109.88 169.89 109.88ZM170.97 122.84V112.76H170.73L167.13 114.44V114.68C168.69 115.16 168.81 115.28 168.81 116.96V122.84C168.81 124.64 168.69 124.76 167.13 124.76V125H172.65V124.76C171.09 124.76 170.97 124.64 170.97 122.84ZM180.553 112.76C179.257 112.76 178.393 114.2 177.673 115.52L177.433 112.76H177.193L173.833 114.44V114.68C175.393 115.16 175.513 115.28 175.513 116.96V122.84C175.513 124.64 175.393 124.76 173.833 124.76V125H179.593V124.76C177.793 124.76 177.673 124.64 177.673 122.84V115.76C178.201 115.064 178.561 114.704 179.113 114.32C179.497 114.896 180.001 115.4 180.793 115.4C181.489 115.4 181.993 114.848 181.993 114.104C181.993 113.216 181.321 112.76 180.553 112.76ZM189.319 112.76C188.023 112.76 187.159 114.2 186.439 115.52L186.199 112.76H185.959L182.599 114.44V114.68C184.159 115.16 184.279 115.28 184.279 116.96V122.84C184.279 124.64 184.159 124.76 182.599 124.76V125H188.359V124.76C186.559 124.76 186.439 124.64 186.439 122.84V115.76C186.967 115.064 187.327 114.704 187.879 114.32C188.263 114.896 188.767 115.4 189.559 115.4C190.255 115.4 190.759 114.848 190.759 114.104C190.759 113.216 190.087 112.76 189.319 112.76ZM196.992 125.24C200.592 125.24 202.872 122.48 202.872 119C202.872 115.52 200.592 112.76 196.992 112.76C193.392 112.76 191.112 115.52 191.112 119C191.112 122.48 193.392 125.24 196.992 125.24ZM196.992 125C194.592 125 193.392 122.72 193.392 119C193.392 115.28 194.592 113 196.992 113C199.392 113 200.592 115.28 200.592 119C200.592 122.72 199.392 125 196.992 125ZM211.233 112.76C209.937 112.76 209.073 114.2 208.353 115.52L208.113 112.76H207.873L204.513 114.44V114.68C206.073 115.16 206.193 115.28 206.193 116.96V122.84C206.193 124.64 206.073 124.76 204.513 124.76V125H210.273V124.76C208.473 124.76 208.353 124.64 208.353 122.84V115.76C208.881 115.064 209.241 114.704 209.793 114.32C210.177 114.896 210.681 115.4 211.473 115.4C212.169 115.4 212.673 114.848 212.673 114.104C212.673 113.216 212.001 112.76 211.233 112.76ZM226.216 123.656C225.688 124.136 225.04 124.52 224.2 124.52C222.64 124.52 221.8 123.992 221.8 121.52V113.48H225.88V113H221.8V110.12H221.56L217.96 113.24V113.48H219.64V121.88C219.64 123.824 220.552 125.24 222.76 125.24C224.56 125.24 225.688 124.448 226.36 123.8L226.216 123.656ZM237.889 122.84V116.12C237.889 114.176 236.977 112.76 234.769 112.76C232.993 112.76 231.553 114.224 230.689 115.208V107H230.449L226.849 108.2V108.44C228.409 109.16 228.529 109.28 228.529 110.96V122.84C228.529 124.64 228.409 124.76 226.849 124.76V125H232.369V124.76C230.809 124.76 230.689 124.64 230.689 122.84V115.448C231.361 114.968 232.153 114.44 233.449 114.44C234.769 114.44 235.729 115.088 235.729 116.84V122.84C235.729 124.64 235.609 124.76 234.049 124.76V125H239.569V124.76C238.009 124.76 237.889 124.64 237.889 122.84ZM247.395 124.28C244.947 124.28 243.267 122.072 243.267 118.64C243.267 118.088 243.291 117.56 243.363 117.08H251.667C251.187 114.176 249.315 112.76 246.747 112.76C243.171 112.76 240.987 115.304 240.987 119C240.987 122.696 243.171 125.24 246.747 125.24C249.819 125.24 251.187 123.08 251.667 121.16L251.451 121.112C250.995 122.912 249.723 124.28 247.395 124.28ZM246.675 113C248.043 113 249.051 113.792 249.243 116.84H243.387C243.771 114.392 244.971 113 246.675 113ZM264.281 125.24C267.881 125.24 270.161 122.48 270.161 119C270.161 115.52 267.881 112.76 264.281 112.76C260.681 112.76 258.401 115.52 258.401 119C258.401 122.48 260.681 125.24 264.281 125.24ZM264.281 125C261.881 125 260.681 122.72 260.681 119C260.681 115.28 261.881 113 264.281 113C266.681 113 267.881 115.28 267.881 119C267.881 122.72 266.681 125 264.281 125ZM278.522 112.76C277.226 112.76 276.362 114.2 275.642 115.52L275.402 112.76H275.162L271.802 114.44V114.68C273.362 115.16 273.482 115.28 273.482 116.96V122.84C273.482 124.64 273.362 124.76 271.802 124.76V125H277.562V124.76C275.762 124.76 275.642 124.64 275.642 122.84V115.76C276.17 115.064 276.53 114.704 277.082 114.32C277.466 114.896 277.97 115.4 278.762 115.4C279.458 115.4 279.962 114.848 279.962 114.104C279.962 113.216 279.29 112.76 278.522 112.76ZM283.328 109.88C284.192 109.88 284.888 109.304 284.888 108.44C284.888 107.576 284.192 107 283.328 107C282.464 107 281.768 107.576 281.768 108.44C281.768 109.304 282.464 109.88 283.328 109.88ZM284.408 122.84V112.76H284.168L280.568 114.44V114.68C282.128 115.16 282.248 115.28 282.248 116.96V122.84C282.248 124.64 282.128 124.76 280.568 124.76V125H286.088V124.76C284.528 124.76 284.408 124.64 284.408 122.84ZM294.831 122.6H289.431C288.783 122.6 288.231 122.408 288.231 121.76C288.231 121.064 288.879 120.584 290.247 120.056C290.919 120.32 291.663 120.44 292.431 120.44C294.831 120.44 297.111 119.24 297.111 116.6C297.111 115.52 296.727 114.68 296.103 114.056C297.111 114.272 297.735 114.92 298.431 114.92C299.151 114.92 299.511 114.44 299.511 113.84C299.511 113.24 299.151 112.76 298.431 112.76C297.663 112.76 296.991 113.624 295.815 113.792C294.927 113.096 293.703 112.76 292.431 112.76C290.031 112.76 287.751 113.96 287.751 116.6C287.751 118.256 288.663 119.36 289.935 119.936C288.375 120.536 287.271 121.376 287.271 122.6C287.271 124.184 288.711 124.76 289.983 124.76H290.223C288.039 125.552 287.031 126.752 287.031 127.88C287.031 130.52 290.031 131 292.671 131C296.511 131 299.271 129.08 299.271 126.2C299.271 123.8 297.711 122.6 294.831 122.6ZM292.431 113C293.631 113 294.831 113.6 294.831 116.6C294.831 119.6 293.631 120.2 292.431 120.2C291.231 120.2 290.031 119.6 290.031 116.6C290.031 113.6 291.231 113 292.431 113ZM292.671 130.76C290.511 130.76 288.831 129.92 288.831 127.64C288.831 126.08 289.887 125.24 290.823 124.76H294.351C296.271 124.76 297.231 125.48 297.231 126.92C297.231 129.44 295.311 130.76 292.671 130.76ZM302.875 109.88C303.739 109.88 304.435 109.304 304.435 108.44C304.435 107.576 303.739 107 302.875 107C302.011 107 301.315 107.576 301.315 108.44C301.315 109.304 302.011 109.88 302.875 109.88ZM303.955 122.84V112.76H303.715L300.115 114.44V114.68C301.675 115.16 301.795 115.28 301.795 116.96V122.84C301.795 124.64 301.675 124.76 300.115 124.76V125H305.635V124.76C304.075 124.76 303.955 124.64 303.955 122.84ZM317.858 122.84V116.12C317.858 114.176 316.946 112.76 314.738 112.76C312.962 112.76 311.522 114.224 310.658 115.208L310.418 112.76H310.178L306.818 114.44V114.68C308.378 115.16 308.498 115.28 308.498 116.96V122.84C308.498 124.64 308.378 124.76 306.818 124.76V125H312.338V124.76C310.778 124.76 310.658 124.64 310.658 122.84V115.448C311.33 114.968 312.122 114.44 313.418 114.44C314.738 114.44 315.698 115.088 315.698 116.84V122.84C315.698 124.64 315.578 124.76 314.018 124.76V125H319.538V124.76C317.978 124.76 317.858 124.64 317.858 122.84ZM323.5 125.24C325.012 125.24 326.212 124.352 327.316 122.96C327.316 124.52 328.204 125.24 329.356 125.24C330.316 125.24 331.276 124.64 331.876 122.96L331.684 122.888C331.444 123.512 331.084 124.28 330.316 124.28C329.788 124.28 329.476 123.92 329.476 123.32V115.16C329.476 113.336 328.54 112.76 326.956 112.76C325.9 112.76 324.796 113.144 323.212 114.128C321.412 115.256 320.956 115.904 320.956 116.576C320.956 117.176 321.34 117.56 321.916 117.56C323.02 117.56 323.356 116.576 323.356 114.296C323.86 113.984 324.628 113.456 325.756 113.456C326.812 113.456 327.316 114.008 327.316 115.136V117.92C322.756 120.152 321.076 121.064 321.076 122.744C321.076 124.304 322.036 125.24 323.5 125.24ZM325.036 124.16C324.052 124.16 323.236 123.488 323.236 122.12C323.236 120.44 324.076 119.624 327.316 118.16V122.72C326.692 123.44 326.02 124.16 325.036 124.16ZM336.415 122.84V107H336.175L332.575 108.2V108.44C334.135 109.16 334.255 109.28 334.255 110.96V122.84C334.255 124.64 334.135 124.76 332.575 124.76V125H338.095V124.76C336.535 124.76 336.415 124.64 336.415 122.84Z" fill="black"/>
</svg>
